<svg xmlns="http://www.w3.org/2000/svg" viewBox="0 0 64 64" width="64" height="64">
  <rect width="64" height="64" rx="14" fill="#c0632c"/>
  <!-- chat bubble -->
  <path d="M14 15h30a7 7 0 0 1 7 7v13a7 7 0 0 1-7 7H27l-10 8v-8h-3a7 7 0 0 1-7-7V22a7 7 0 0 1 7-7z" fill="#fff"/>
  <!-- typing dots -->
  <circle cx="22" cy="29" r="3.2" fill="#c0632c"/>
  <circle cx="32" cy="29" r="3.2" fill="#c0632c"/>
  <circle cx="42" cy="29" r="3.2" fill="#c0632c"/>
  <!-- AI sparkle -->
  <path d="M50 8l1.8 4.2L56 14l-4.2 1.8L50 20l-1.8-4.2L44 14l4.2-1.8z" fill="#e8a33d"/>
</svg>
